/* XPM */
static char * dbr_xpm[] = {
"32 32 11 1",
" 	c None",
".	c #000000",
"+	c #D45500",
"@	c #150800",
"#	c #D25400",
"$	c #C54E00",
"%	c #D05200",
"&	c #D55500",
"*	c #CC5100",
"=	c #B94900",
"-	c #C44D00",
"                                ",
"                                ",
"                    .           ",
"                    .           ",
"              ++++              ",
"              ++++   .          ",
"              ++++   .          ",
"              ++++   .          ",
"                    ..          ",
"            ..........          ",
"            ..........          ",
"               ...  .           ",
"               .@+ ..           ",
"               +#. ..           ",
"             $+%....            ",
"            &++.....            ",
"            ++ ....             ",
"           ++  ...              ",
"          &++  ...              ",
"          +++  ...              ",
"          ++ . ...              ",
"          ++   ...              ",
"          ++   ...              ",
"          ++   ...              ",
"          ++   ...              ",
"          *+........            ",
"           +                    ",
"           &                    ",
"            =                   ",
"            +                   ",
"                                ",
"             -                  "};
